# Blender v2.93.5 OBJ File: ''
# www.blender.org
mtllib pawn.mtl
o Pawn_0
v 0.000000 3.063976 -0.000000
v -0.527582 3.319958 -0.000000
v -0.263787 3.319958 -0.456896
v -0.746110 3.847540 -0.000001
v -0.527582 4.375122 -0.000001
v -0.263787 4.375122 -0.456896
v -0.373055 3.847540 -0.646154
v -0.527582 3.319958 -0.000000
v -0.746110 3.847540 -0.000001
v -0.373055 3.847540 -0.646154
v -0.263787 3.319958 -0.456896
v -0.527582 4.375122 -0.000001
v 0.000000 4.593650 -0.000001
v -0.263787 4.375122 -0.456896
v -0.373055 3.847540 -0.646154
v -0.263787 4.375122 -0.456896
v 0.263787 4.375122 -0.456896
v 0.373055 3.847540 -0.646154
v -0.263787 3.319958 -0.456896
v -0.373055 3.847540 -0.646154
v 0.373055 3.847540 -0.646154
v 0.263787 3.319958 -0.456896
v -0.263787 4.375122 -0.456896
v 0.000000 4.593650 -0.000001
v 0.263787 4.375122 -0.456896
v 0.000000 3.063976 -0.000000
v -0.263787 3.319958 -0.456896
v 0.263787 3.319958 -0.456896
v 0.000000 3.063976 -0.000000
v 0.263787 3.319958 -0.456896
v 0.527582 3.319958 -0.000000
v 0.373055 3.847540 -0.646154
v 0.263787 4.375122 -0.456896
v 0.527582 4.375122 -0.000001
v 0.746110 3.847540 -0.000001
v 0.263787 3.319958 -0.456896
v 0.373055 3.847540 -0.646154
v 0.746110 3.847540 -0.000001
v 0.527582 3.319958 -0.000000
v 0.263787 4.375122 -0.456896
v 0.000000 4.593650 -0.000001
v 0.527582 4.375122 -0.000001
v 0.000000 3.063976 -0.000000
v 0.527582 3.319958 -0.000000
v 0.263787 3.319959 0.456895
v 0.746110 3.847540 -0.000001
v 0.527582 4.375122 -0.000001
v 0.263787 4.375122 0.456895
v 0.373055 3.847540 0.646153
v 0.527582 3.319958 -0.000000
v 0.746110 3.847540 -0.000001
v 0.373055 3.847540 0.646153
v 0.263787 3.319959 0.456895
v 0.527582 4.375122 -0.000001
v 0.000000 4.593650 -0.000001
v 0.263787 4.375122 0.456895
v 0.000000 3.063976 -0.000000
v 0.263787 3.319959 0.456895
v -0.263787 3.319959 0.456895
v 0.373055 3.847540 0.646153
v 0.263787 4.375122 0.456895
v -0.263787 4.375122 0.456895
v -0.373055 3.847540 0.646153
v 0.263787 3.319959 0.456895
v 0.373055 3.847540 0.646153
v -0.373055 3.847540 0.646153
v -0.263787 3.319959 0.456895
v 0.263787 4.375122 0.456895
v 0.000000 4.593650 -0.000001
v -0.263787 4.375122 0.456895
v 0.000000 3.063976 -0.000000
v -0.263787 3.319959 0.456895
v -0.527582 3.319958 -0.000000
v -0.527582 4.375122 -0.000001
v -0.746110 3.847540 -0.000001
v -0.373055 3.847540 0.646153
v -0.263787 4.375122 0.456895
v -0.263787 3.319959 0.456895
v -0.373055 3.847540 0.646153
v -0.746110 3.847540 -0.000001
v -0.527582 3.319958 -0.000000
v -0.263787 4.375122 0.456895
v 0.000000 4.593650 -0.000001
v -0.527582 4.375122 -0.000001
v 0.667366 1.196798 -0.667366
v 0.676185 1.263112 -0.676185
v 0.956267 1.263112 -0.000000
v 0.943792 1.196798 -0.000000
v 1.189031 0.587614 -0.000000
v 1.415125 0.800561 -0.000000
v 1.000646 0.800561 1.000645
v 0.840769 0.587614 0.840769
v 0.840769 0.587614 0.840769
v 1.000646 0.800561 1.000645
v 0.000000 0.800561 1.415125
v 0.000000 0.587614 1.189031
v 1.060670 -0.000022 1.060670
v 0.997586 0.433095 0.997586
v 0.000000 0.433095 1.410797
v 0.000000 -0.000022 1.500010
v 1.500010 -0.000022 0.000000
v 1.410797 0.433094 -0.000000
v 0.997586 0.433095 0.997586
v 1.060670 -0.000022 1.060670
v 0.000000 1.196797 -0.943792
v 0.000000 1.263112 -0.956267
v 0.676185 1.263112 -0.676185
v 0.667366 1.196798 -0.667366
v 0.000000 0.587614 1.189031
v 0.000000 0.800561 1.415125
v -1.000646 0.800561 1.000645
v -0.840769 0.587614 0.840769
v -0.840769 0.587614 0.840769
v -1.000646 0.800561 1.000645
v -1.415125 0.800561 -0.000000
v -1.189031 0.587614 -0.000000
v -1.060670 -0.000022 1.060670
v -0.997586 0.433095 0.997586
v -1.410797 0.433094 -0.000000
v -1.500010 -0.000022 0.000000
v 0.000000 -0.000022 1.500010
v 0.000000 0.433095 1.410797
v -0.997586 0.433095 0.997586
v -1.060670 -0.000022 1.060670
v -0.667366 1.196798 -0.667366
v -0.676177 1.263112 -0.676185
v 0.000000 1.263112 -0.956267
v 0.000000 1.196797 -0.943792
v -1.415125 0.800561 -0.000000
v -0.943792 1.196798 -0.000000
v -0.667366 1.196798 -0.667366
v -1.000646 0.800561 -1.000646
v -1.000646 0.800561 -1.000646
v -0.667366 1.196798 -0.667366
v 0.000000 1.196797 -0.943792
v 0.000000 0.800561 -1.415125
v -0.997586 0.433094 -0.997586
v -0.840769 0.587614 -0.840769
v 0.000000 0.587614 -1.189031
v 0.000000 0.433094 -1.410797
v -1.410797 0.433094 -0.000000
v -1.189031 0.587614 -0.000000
v -0.840769 0.587614 -0.840769
v -0.997586 0.433094 -0.997586
v -0.943792 1.196798 -0.000000
v -0.956267 1.263112 -0.000000
v -0.676177 1.263112 -0.676185
v -0.667366 1.196798 -0.667366
v 0.000000 0.800561 -1.415125
v 0.000000 1.196797 -0.943792
v 0.667366 1.196798 -0.667366
v 1.000646 0.800561 -1.000646
v 1.000646 0.800561 -1.000646
v 0.667366 1.196798 -0.667366
v 0.943792 1.196798 -0.000000
v 1.415125 0.800561 -0.000000
v 0.997586 0.433094 -0.997586
v 0.840769 0.587614 -0.840769
v 1.189031 0.587614 -0.000000
v 1.410797 0.433094 -0.000000
v 0.000000 0.433094 -1.410797
v 0.000000 0.587614 -1.189031
v 0.840769 0.587614 -0.840769
v 0.997586 0.433094 -0.997586
v 0.000000 1.196798 0.943792
v 0.000000 1.263112 0.956267
v -0.676185 1.263112 0.676184
v -0.667366 1.196798 0.667365
v 0.000000 0.800561 1.415125
v 0.000000 1.196798 0.943792
v -0.667366 1.196798 0.667365
v -1.000646 0.800561 1.000645
v 1.415125 0.800561 -0.000000
v 0.943792 1.196798 -0.000000
v 0.667366 1.196798 0.667365
v 1.000646 0.800561 1.000645
v 1.410797 0.433094 -0.000000
v 1.189031 0.587614 -0.000000
v 0.840769 0.587614 0.840769
v 0.997586 0.433095 0.997586
v 0.000000 0.433095 1.410797
v 0.000000 0.587614 1.189031
v -0.840769 0.587614 0.840769
v -0.997586 0.433095 0.997586
v -0.667366 1.196798 0.667365
v -0.676185 1.263112 0.676184
v -0.956267 1.263112 -0.000000
v -0.943792 1.196798 -0.000000
v -1.000646 0.800561 1.000645
v -0.667366 1.196798 0.667365
v -0.943792 1.196798 -0.000000
v -1.415125 0.800561 -0.000000
v 1.000646 0.800561 1.000645
v 0.667366 1.196798 0.667365
v 0.000000 1.196798 0.943792
v 0.000000 0.800561 1.415125
v 0.997586 0.433095 0.997586
v 0.840769 0.587614 0.840769
v 0.000000 0.587614 1.189031
v 0.000000 0.433095 1.410797
v -0.997586 0.433095 0.997586
v -0.840769 0.587614 0.840769
v -1.189031 0.587614 -0.000000
v -1.410797 0.433094 -0.000000
v 0.676185 1.263112 -0.676185
v 0.543153 1.347057 -0.543153
v 0.768135 1.347057 -0.000000
v 0.956267 1.263112 -0.000000
v 0.956267 1.263112 -0.000000
v 0.768135 1.347057 -0.000000
v 0.543153 1.347057 0.543153
v 0.676185 1.263112 0.676184
v -0.676177 1.263112 -0.676185
v -0.543153 1.347057 -0.543153
v 0.000000 1.347057 -0.768135
v 0.000000 1.263112 -0.956267
v -0.956267 1.263112 -0.000000
v -0.768135 1.347057 -0.000000
v -0.543153 1.347057 -0.543153
v -0.676177 1.263112 -0.676185
v 0.000000 1.263112 -0.956267
v 0.000000 1.347057 -0.768135
v 0.543153 1.347057 -0.543153
v 0.676185 1.263112 -0.676185
v 0.667366 1.196798 0.667365
v 0.676185 1.263112 0.676184
v 0.000000 1.263112 0.956267
v 0.000000 1.196798 0.943792
v -1.189031 0.587614 -0.000000
v -1.415125 0.800561 -0.000000
v -1.000646 0.800561 -1.000646
v -0.840769 0.587614 -0.840769
v -0.840769 0.587614 -0.840769
v -1.000646 0.800561 -1.000646
v 0.000000 0.800561 -1.415125
v 0.000000 0.587614 -1.189031
v -1.060663 -0.000023 -1.060670
v -0.997586 0.433094 -0.997586
v 0.000000 0.433094 -1.410797
v 0.000000 -0.000023 -1.500010
v -1.500010 -0.000022 0.000000
v -1.410797 0.433094 -0.000000
v -0.997586 0.433094 -0.997586
v -1.060663 -0.000023 -1.060670
v -1.060670 -0.000022 1.060670
v -1.500010 -0.000022 0.000000
v -1.060663 -0.000023 -1.060670
v 0.000000 -0.000023 -1.500010
v 1.060670 -0.000023 -1.060670
v 1.500010 -0.000022 0.000000
v 1.060670 -0.000022 1.060670
v 0.000000 -0.000022 1.500010
v -0.668612 3.007838 0.668611
v 0.000000 3.007838 0.945560
v 0.000000 3.217122 0.280455
v -0.198309 3.217122 0.198308
v 0.000000 -0.000023 -1.500010
v 0.000000 0.433094 -1.410797
v 0.997586 0.433094 -0.997586
v 1.060670 -0.000023 -1.060670
v 1.060670 -0.000023 -1.060670
v 0.997586 0.433094 -0.997586
v 1.410797 0.433094 -0.000000
v 1.500010 -0.000022 0.000000
v 0.840769 0.587614 -0.840769
v 1.000646 0.800561 -1.000646
v 1.415125 0.800561 -0.000000
v 1.189031 0.587614 -0.000000
v 0.000000 0.587614 -1.189031
v 0.000000 0.800561 -1.415125
v 1.000646 0.800561 -1.000646
v 0.840769 0.587614 -0.840769
v 0.943792 1.196798 -0.000000
v 0.956267 1.263112 -0.000000
v 0.676185 1.263112 0.676184
v 0.667366 1.196798 0.667365
v -0.676185 1.263112 0.676184
v -0.543153 1.347057 0.543153
v -0.768135 1.347057 -0.000000
v -0.956267 1.263112 -0.000000
v 0.676185 1.263112 0.676184
v 0.543153 1.347057 0.543153
v 0.000000 1.347057 0.768135
v 0.000000 1.263112 0.956267
v 0.000000 1.263112 0.956267
v 0.000000 1.347057 0.768135
v -0.543153 1.347057 0.543153
v -0.676185 1.263112 0.676184
v -0.198309 3.217122 0.198308
v 0.000000 3.217122 0.280455
v 0.198309 3.217122 0.198308
v 0.280455 3.217122 -0.000000
v 0.198309 3.217122 -0.198309
v 0.000000 3.217122 -0.280456
v -0.198309 3.217122 -0.198309
v -0.280455 3.217122 -0.000000
v 0.000000 3.007838 0.945560
v 0.668612 3.007838 0.668611
v 0.198309 3.217122 0.198308
v 0.000000 3.217122 0.280455
v 0.945560 3.007838 -0.000000
v 0.668612 3.007838 -0.668612
v 0.198309 3.217122 -0.198309
v 0.280455 3.217122 -0.000000
v -0.945560 3.007838 -0.000000
v -0.668612 3.007838 0.668611
v -0.198309 3.217122 0.198308
v -0.280455 3.217122 -0.000000
v 0.000000 3.007838 -0.945561
v -0.668612 3.007838 -0.668612
v -0.198309 3.217122 -0.198309
v 0.000000 3.217122 -0.280456
v 0.668612 3.007838 0.668611
v 0.945560 3.007838 -0.000000
v 0.280455 3.217122 -0.000000
v 0.198309 3.217122 0.198308
v 0.668612 3.007838 -0.668612
v 0.000000 3.007838 -0.945561
v 0.000000 3.217122 -0.280456
v 0.198309 3.217122 -0.198309
v -0.668612 3.007838 -0.668612
v -0.945560 3.007838 -0.000000
v -0.280455 3.217122 -0.000000
v -0.198309 3.217122 -0.198309
v -0.543153 1.347057 -0.543153
v -0.768135 1.347057 -0.000000
v -0.524747 1.847063 -0.000000
v -0.371048 1.847063 -0.371048
v -0.371048 1.847063 -0.371048
v -0.524747 1.847063 -0.000000
v -0.468714 2.347068 -0.000000
v -0.331430 2.347068 -0.331430
v -0.331430 2.347068 -0.331430
v -0.468714 2.347068 -0.000000
v -0.456895 2.907367 -0.000000
v -0.323073 2.907367 -0.323074
v 0.543153 1.347057 -0.543153
v 0.000000 1.347057 -0.768135
v 0.000000 1.847063 -0.524747
v 0.371048 1.847063 -0.371048
v 0.371048 1.847063 -0.371048
v 0.000000 1.847063 -0.524747
v 0.000000 2.347068 -0.468714
v 0.331430 2.347068 -0.331430
v 0.331430 2.347068 -0.331430
v 0.000000 2.347068 -0.468714
v 0.000000 2.907367 -0.456896
v 0.323073 2.907367 -0.323074
v 0.543153 1.347057 0.543153
v 0.768135 1.347057 -0.000000
v 0.524747 1.847063 -0.000000
v 0.371048 1.847063 0.371048
v 0.371048 1.847063 0.371048
v 0.524747 1.847063 -0.000000
v 0.468714 2.347068 -0.000000
v 0.331430 2.347068 0.331429
v 0.331430 2.347068 0.331429
v 0.468714 2.347068 -0.000000
v 0.456895 2.907367 -0.000000
v 0.323073 2.907367 0.323073
v 0.000000 1.347057 -0.768135
v -0.543153 1.347057 -0.543153
v -0.371048 1.847063 -0.371048
v 0.000000 1.847063 -0.524747
v 0.000000 1.847063 -0.524747
v -0.371048 1.847063 -0.371048
v -0.331430 2.347068 -0.331430
v 0.000000 2.347068 -0.468714
v 0.000000 2.347068 -0.468714
v -0.331430 2.347068 -0.331430
v -0.323073 2.907367 -0.323074
v 0.000000 2.907367 -0.456896
v -0.768135 1.347057 -0.000000
v -0.543153 1.347057 0.543153
v -0.371048 1.847063 0.371048
v -0.524747 1.847063 -0.000000
v -0.524747 1.847063 -0.000000
v -0.371048 1.847063 0.371048
v -0.331430 2.347068 0.331429
v -0.468714 2.347068 -0.000000
v -0.468714 2.347068 -0.000000
v -0.331430 2.347068 0.331429
v -0.323073 2.907367 0.323073
v -0.456895 2.907367 -0.000000
v 0.768135 1.347057 -0.000000
v 0.543153 1.347057 -0.543153
v 0.371048 1.847063 -0.371048
v 0.524747 1.847063 -0.000000
v 0.524747 1.847063 -0.000000
v 0.371048 1.847063 -0.371048
v 0.331430 2.347068 -0.331430
v 0.468714 2.347068 -0.000000
v 0.468714 2.347068 -0.000000
v 0.331430 2.347068 -0.331430
v 0.323073 2.907367 -0.323074
v 0.456895 2.907367 -0.000000
v 0.000000 1.347057 0.768135
v 0.543153 1.347057 0.543153
v 0.371048 1.847063 0.371048
v 0.000000 1.847063 0.524746
v 0.000000 1.847063 0.524746
v 0.371048 1.847063 0.371048
v 0.331430 2.347068 0.331429
v 0.000000 2.347068 0.468714
v 0.000000 2.347068 0.468714
v 0.331430 2.347068 0.331429
v 0.323073 2.907367 0.323073
v 0.000000 2.907367 0.456895
v -0.543153 1.347057 0.543153
v 0.000000 1.347057 0.768135
v 0.000000 1.847063 0.524746
v -0.371048 1.847063 0.371048
v -0.371048 1.847063 0.371048
v 0.000000 1.847063 0.524746
v 0.000000 2.347068 0.468714
v -0.331430 2.347068 0.331429
v -0.331430 2.347068 0.331429
v 0.000000 2.347068 0.468714
v 0.000000 2.907367 0.456895
v -0.323073 2.907367 0.323073
v -0.323073 2.907367 -0.323074
v -0.456895 2.907367 -0.000000
v -0.945560 3.007838 -0.000000
v -0.668612 3.007838 -0.668612
v 0.323073 2.907367 -0.323074
v 0.000000 2.907367 -0.456896
v 0.000000 3.007838 -0.945561
v 0.668612 3.007838 -0.668612
v 0.323073 2.907367 0.323073
v 0.456895 2.907367 -0.000000
v 0.945560 3.007838 -0.000000
v 0.668612 3.007838 0.668611
v 0.000000 2.907367 -0.456896
v -0.323073 2.907367 -0.323074
v -0.668612 3.007838 -0.668612
v 0.000000 3.007838 -0.945561
v -0.456895 2.907367 -0.000000
v -0.323073 2.907367 0.323073
v -0.668612 3.007838 0.668611
v -0.945560 3.007838 -0.000000
v 0.456895 2.907367 -0.000000
v 0.323073 2.907367 -0.323074
v 0.668612 3.007838 -0.668612
v 0.945560 3.007838 -0.000000
v 0.000000 2.907367 0.456895
v 0.323073 2.907367 0.323073
v 0.668612 3.007838 0.668611
v 0.000000 3.007838 0.945560
v -0.323073 2.907367 0.323073
v 0.000000 2.907367 0.456895
v 0.000000 3.007838 0.945560
v -0.668612 3.007838 0.668611
vn -0.4233 -0.8724 -0.2444
vn -0.3737 0.9021 -0.2157
vn 0.0000 0.9021 -0.4315
vn 0.0000 -0.8724 -0.4888
vn 0.4233 -0.8724 -0.2444
vn 0.3737 0.9021 -0.2157
vn 0.4233 -0.8724 0.2444
vn 0.3737 0.9021 0.2157
vn 0.0000 -0.8724 0.4888
vn 0.0000 0.9021 0.4315
vn -0.4233 -0.8724 0.2444
vn -0.3737 0.9021 0.2157
vn 0.0000 -1.0000 0.0000
vn 0.0000 1.0000 0.0000
vn -0.8152 0.3376 -0.4706
vn -0.8152 0.3377 -0.4706
vn -0.8152 -0.3376 -0.4706
vn -0.8152 -0.3377 -0.4706
vn 0.0000 0.3377 -0.9413
vn 0.0000 -0.3377 -0.9413
vn 0.8152 0.3377 -0.4706
vn 0.8152 0.3376 -0.4706
vn 0.8152 -0.3377 -0.4706
vn 0.8152 -0.3376 -0.4706
vn 0.8152 0.3376 0.4706
vn 0.8152 0.3377 0.4706
vn 0.8152 -0.3376 0.4706
vn 0.8152 -0.3377 0.4706
vn 0.0000 0.3377 0.9413
vn 0.0000 -0.3377 0.9413
vn -0.8152 0.3376 0.4706
vn -0.8152 0.3377 0.4706
vn -0.8152 -0.3377 0.4706
vn -0.8152 -0.3376 0.4706
vn 0.9102 -0.1712 -0.3770
vn 0.6595 -0.7003 0.2732
vn 0.2732 -0.7003 0.6595
vn 0.3759 0.1869 0.9076
vn 0.9076 0.1869 0.3759
vn 0.3770 -0.1712 -0.9102
vn -0.2732 -0.7003 0.6595
vn -0.6595 -0.7003 0.2732
vn -0.9076 0.1869 0.3759
vn -0.3759 0.1869 0.9076
vn -0.3770 -0.1712 -0.9102
vn -0.6218 0.7396 -0.2575
vn -0.6218 0.7396 -0.2576
vn -0.2575 0.7396 -0.6218
vn -0.2576 0.7396 -0.6218
vn -0.2304 0.7984 -0.5563
vn -0.5563 0.7984 -0.2304
vn -0.9102 -0.1712 -0.3770
vn -0.9103 -0.1711 -0.3770
vn 0.2575 0.7396 -0.6218
vn 0.2576 0.7396 -0.6218
vn 0.6218 0.7396 -0.2575
vn 0.6218 0.7396 -0.2576
vn 0.5563 0.7984 -0.2304
vn 0.2304 0.7984 -0.5563
vn -0.3770 -0.1712 0.9102
vn -0.2575 0.7396 0.6218
vn -0.2576 0.7396 0.6218
vn 0.6218 0.7396 0.2575
vn 0.6218 0.7396 0.2576
vn 0.5563 0.7984 0.2304
vn -0.2304 0.7984 0.5563
vn -0.9102 -0.1712 0.3770
vn -0.6218 0.7396 0.2575
vn -0.6218 0.7396 0.2576
vn 0.2575 0.7396 0.6218
vn 0.2576 0.7396 0.6218
vn 0.2304 0.7984 0.5563
vn -0.5563 0.7984 0.2304
vn 0.4018 0.9005 -0.1664
vn 0.4018 0.9005 0.1664
vn -0.1664 0.9005 -0.4018
vn -0.4018 0.9005 -0.1664
vn 0.1664 0.9005 -0.4018
vn 0.3770 -0.1712 0.9102
vn -0.6595 -0.7003 -0.2732
vn -0.2732 -0.7003 -0.6595
vn -0.3759 0.1869 -0.9076
vn -0.9076 0.1869 -0.3759
vn -0.1234 0.9466 0.2979
vn 0.3759 0.1869 -0.9076
vn 0.9076 0.1869 -0.3759
vn 0.6595 -0.7003 -0.2732
vn 0.2732 -0.7003 -0.6595
vn 0.9102 -0.1712 0.3770
vn -0.4018 0.9005 0.1664
vn 0.1664 0.9005 0.4018
vn -0.1664 0.9005 0.4018
vn 0.1234 0.9466 0.2979
vn 0.2979 0.9466 -0.1234
vn -0.2979 0.9466 0.1234
vn -0.1234 0.9466 -0.2979
vn 0.2979 0.9466 0.1234
vn 0.1234 0.9466 -0.2979
vn -0.2979 0.9466 -0.1234
vn -0.8426 0.4102 -0.3490
vn -0.9190 0.1030 -0.3807
vn -0.9237 0.0195 -0.3826
vn 0.3490 0.4102 -0.8426
vn 0.3807 0.1030 -0.9190
vn 0.3826 0.0195 -0.9237
vn 0.8426 0.4102 0.3490
vn 0.9190 0.1030 0.3807
vn 0.9237 0.0195 0.3826
vn -0.3490 0.4102 -0.8426
vn -0.3490 0.4101 -0.8426
vn -0.3807 0.1030 -0.9190
vn -0.3826 0.0195 -0.9237
vn -0.8426 0.4102 0.3490
vn -0.8426 0.4101 0.3490
vn -0.9190 0.1030 0.3807
vn -0.9237 0.0195 0.3826
vn 0.8426 0.4102 -0.3490
vn 0.8426 0.4101 -0.3490
vn 0.9190 0.1030 -0.3807
vn 0.9237 0.0195 -0.3826
vn 0.3490 0.4102 0.8426
vn 0.3490 0.4101 0.8426
vn 0.3807 0.1030 0.9190
vn 0.3826 0.0195 0.9237
vn -0.3490 0.4102 0.8426
vn -0.3807 0.1030 0.9190
vn -0.3826 0.0195 0.9237
vn -0.2007 -0.9761 -0.0831
vn 0.0831 -0.9761 -0.2007
vn 0.2007 -0.9761 0.0831
vn -0.0831 -0.9761 -0.2007
vn -0.2007 -0.9761 0.0831
vn 0.2007 -0.9761 -0.0831
vn 0.0831 -0.9761 0.2007
vn -0.0831 -0.9761 0.2007
usemtl Root
s off
f 1//1 2//1 3//1
f 12//2 13//2 14//2
f 23//3 24//3 25//3
f 26//4 27//4 28//4
f 29//5 30//5 31//5
f 40//6 41//6 42//6
f 43//7 44//7 45//7
f 54//8 55//8 56//8
f 57//9 58//9 59//9
f 68//10 69//10 70//10
f 71//11 72//11 73//11
f 82//12 83//12 84//12
f 245//13 246//13 247//13
f 247//13 248//13 249//13
f 249//13 250//13 251//13
f 251//13 252//13 245//13
f 245//13 247//13 249//13
f 249//13 251//13 245//13
f 289//14 290//14 291//14
f 291//14 292//14 293//14
f 293//14 294//14 295//14
f 295//14 296//14 289//14
f 289//14 291//14 293//14
f 293//14 295//14 289//14
f 4//15 5//15 6//15
f 4//16 6//16 7//16
f 8//17 9//17 10//17
f 8//18 10//18 11//18
f 15//19 16//19 17//19
f 19//20 21//20 22//20
f 32//21 33//21 34//21
f 32//22 34//22 35//22
f 36//23 37//23 38//23
f 36//24 38//24 39//24
f 46//25 47//25 48//25
f 46//26 48//26 49//26
f 50//27 51//27 52//27
f 50//28 52//28 53//28
f 60//29 61//29 62//29
f 64//30 66//30 67//30
f 74//31 75//31 76//31
f 74//32 76//32 77//32
f 78//33 79//33 80//33
f 78//34 80//34 81//34
f 85//35 86//35 87//35
f 85//35 87//35 88//35
f 89//36 90//36 91//36
f 89//36 91//36 92//36
f 93//37 94//37 95//37
f 93//37 95//37 96//37
f 97//38 98//38 99//38
f 97//38 99//38 100//38
f 101//39 102//39 103//39
f 101//39 103//39 104//39
f 105//40 106//40 107//40
f 105//40 107//40 108//40
f 109//41 110//41 111//41
f 109//41 111//41 112//41
f 113//42 114//42 115//42
f 113//42 115//42 116//42
f 117//43 118//43 119//43
f 117//43 119//43 120//43
f 121//44 122//44 123//44
f 121//44 123//44 124//44
f 125//45 126//45 127//45
f 125//45 127//45 128//45
f 129//46 130//46 131//46
f 129//47 131//47 132//47
f 133//48 134//48 135//48
f 133//49 135//49 136//49
f 137//50 138//50 139//50
f 137//50 139//50 140//50
f 141//51 142//51 143//51
f 141//51 143//51 144//51
f 145//52 146//52 147//52
f 145//53 147//53 148//53
f 149//54 150//54 151//54
f 149//55 151//55 152//55
f 153//56 154//56 155//56
f 153//57 155//57 156//57
f 157//58 158//58 159//58
f 157//58 159//58 160//58
f 161//59 162//59 163//59
f 161//59 163//59 164//59
f 165//60 166//60 167//60
f 165//60 167//60 168//60
f 169//61 170//61 171//61
f 169//62 171//62 172//62
f 173//63 174//63 175//63
f 173//64 175//64 176//64
f 177//65 178//65 179//65
f 177//65 179//65 180//65
f 181//66 182//66 183//66
f 181//66 183//66 184//66
f 185//67 186//67 187//67
f 185//67 187//67 188//67
f 189//68 190//68 191//68
f 189//69 191//69 192//69
f 193//70 194//70 195//70
f 193//71 195//71 196//71
f 197//72 198//72 199//72
f 197//72 199//72 200//72
f 201//73 202//73 203//73
f 201//73 203//73 204//73
f 205//74 206//74 207//74
f 205//74 207//74 208//74
f 209//75 210//75 211//75
f 209//75 211//75 212//75
f 213//76 214//76 215//76
f 213//76 215//76 216//76
f 217//77 218//77 219//77
f 217//77 219//77 220//77
f 221//78 222//78 223//78
f 221//78 223//78 224//78
f 225//79 226//79 227//79
f 225//79 227//79 228//79
f 229//80 230//80 231//80
f 229//80 231//80 232//80
f 233//81 234//81 235//81
f 233//81 235//81 236//81
f 237//82 238//82 239//82
f 237//82 239//82 240//82
f 241//83 242//83 243//83
f 241//83 243//83 244//83
f 253//84 254//84 255//84
f 253//84 255//84 256//84
f 257//85 258//85 259//85
f 257//85 259//85 260//85
f 261//86 262//86 263//86
f 261//86 263//86 264//86
f 265//87 266//87 267//87
f 265//87 267//87 268//87
f 269//88 270//88 271//88
f 269//88 271//88 272//88
f 273//89 274//89 275//89
f 273//89 275//89 276//89
f 277//90 278//90 279//90
f 277//90 279//90 280//90
f 281//91 282//91 283//91
f 281//91 283//91 284//91
f 285//92 286//92 287//92
f 285//92 287//92 288//92
f 297//93 298//93 299//93
f 297//93 299//93 300//93
f 301//94 302//94 303//94
f 301//94 303//94 304//94
f 305//95 306//95 307//95
f 305//95 307//95 308//95
f 309//96 310//96 311//96
f 309//96 311//96 312//96
f 313//97 314//97 315//97
f 313//97 315//97 316//97
f 317//98 318//98 319//98
f 317//98 319//98 320//98
f 321//99 322//99 323//99
f 321//99 323//99 324//99
f 325//100 326//100 327//100
f 325//100 327//100 328//100
f 329//101 330//101 331//101
f 329//101 331//101 332//101
f 333//102 334//102 335//102
f 333//102 335//102 336//102
f 337//103 338//103 339//103
f 337//103 339//103 340//103
f 341//104 342//104 343//104
f 341//104 343//104 344//104
f 345//105 346//105 347//105
f 345//105 347//105 348//105
f 349//106 350//106 351//106
f 349//106 351//106 352//106
f 353//107 354//107 355//107
f 353//107 355//107 356//107
f 357//108 358//108 359//108
f 357//108 359//108 360//108
f 361//109 362//109 363//109
f 361//110 363//110 364//110
f 365//111 366//111 367//111
f 365//111 367//111 368//111
f 369//112 370//112 371//112
f 369//112 371//112 372//112
f 373//113 374//113 375//113
f 373//114 375//114 376//114
f 377//115 378//115 379//115
f 377//115 379//115 380//115
f 381//116 382//116 383//116
f 381//116 383//116 384//116
f 385//117 386//117 387//117
f 385//118 387//118 388//118
f 389//119 390//119 391//119
f 389//119 391//119 392//119
f 393//120 394//120 395//120
f 393//120 395//120 396//120
f 397//121 398//121 399//121
f 397//122 399//122 400//122
f 401//123 402//123 403//123
f 401//123 403//123 404//123
f 405//124 406//124 407//124
f 405//124 407//124 408//124
f 409//125 410//125 411//125
f 409//125 411//125 412//125
f 413//126 414//126 415//126
f 413//126 415//126 416//126
f 417//127 418//127 419//127
f 417//127 419//127 420//127
f 421//128 422//128 423//128
f 421//128 423//128 424//128
f 425//129 426//129 427//129
f 425//129 427//129 428//129
f 429//130 430//130 431//130
f 429//130 431//130 432//130
f 433//131 434//131 435//131
f 433//131 435//131 436//131
f 437//132 438//132 439//132
f 437//132 439//132 440//132
f 441//133 442//133 443//133
f 441//133 443//133 444//133
f 445//134 446//134 447//134
f 445//134 447//134 448//134
f 449//135 450//135 451//135
f 449//135 451//135 452//135
s 1
f 15//19 17//19 18//19
f 19//20 20//20 21//20
f 60//29 62//29 63//29
f 64//30 65//30 66//30
